<?xml version="1.0" encoding="UTF-8" standalone="no"?>
<svg
   xmlns:dc="http://purl.org/dc/elements/1.1/"
   xmlns:cc="http://creativecommons.org/ns#"
   xmlns:rdf="http://www.w3.org/1999/02/22-rdf-syntax-ns#"
   xmlns:svg="http://www.w3.org/2000/svg"
   xmlns="http://www.w3.org/2000/svg"
   viewBox="0 0 687.87372 377.95312"
   height="377.95312"
   width="687.87372"
   xml:space="preserve"
   id="svg2"
   version="1.1"><metadata
     id="metadata8"><rdf:RDF><cc:Work
         rdf:about=""><dc:format>image/svg+xml</dc:format><dc:type
           rdf:resource="http://purl.org/dc/dcmitype/StillImage" /></cc:Work></rdf:RDF></metadata><defs
     id="defs6"><clipPath
       id="clipPath14"
       clipPathUnits="userSpaceOnUse"><path
         id="path12"
         d="M 38,278.53516 H 553.90527 V 562 H 38 Z" /></clipPath></defs><g
     clip-path="url(#clipPath14)"
     transform="matrix(1.3333333,0,0,-1.3333333,-50.666667,749.33333)"
     id="g10"><path
       id="path16"
       style="fill:#8cb3dc;fill-opacity:1;fill-rule:nonzero;stroke:none"
       d="m 143.57373,436.9624 c 0,-8.89062 -7.20752,-16.09814 -16.09863,-16.09814 -8.89063,0 -16.09815,7.20752 -16.09815,16.09814 0,8.89112 7.20752,16.09864 16.09815,16.09864 8.89111,0 16.09863,-7.20752 16.09863,-16.09864 z" /><path
       id="path18"
       style="fill:#ffffff;fill-opacity:1;fill-rule:nonzero;stroke:none"
       d="m 115.92822,437.05664 c 0.8086,3.16943 2.49268,5.70264 4.83155,5.65332 2.47363,-0.0523 3.8999,-2.65088 5.54003,-6.32959 1.72657,-3.87305 3.07276,-7.77978 7.92481,-7.77978 4.90283,0 6.45654,3.93652 7.68994,8.31298 l -2.92187,0.0156 c -0.93799,-3.73535 -1.97608,-5.55518 -4.78077,-5.55518 -2.82666,0 -3.59668,2.13721 -5.37939,6.13526 -1.58057,3.5459 -3.28662,8 -8.08545,7.97412 -4.76367,-0.0259 -7.07275,-4.56983 -7.82861,-8.40772 h 3.00976 v -0.019 z" /><path
       id="path20"
       style="fill:#0f70b5;fill-opacity:1;fill-rule:nonzero;stroke:none"
       d="m 179.67822,432.20508 c 3.0166,-3.21192 7.25391,-5.45899 11.93848,-5.45899 5.65088,0.0659 9.63086,2.1836 9.63086,6.03809 0,8.98535 -26,0.32227 -26,16.75244 0,7.1919 7.51172,12.13428 16.69189,12.13428 6.6753,0 12.06787,-2.11768 16.04932,-6.16211 l -5.521,-4.94238 c -3.66015,3.59375 -6.99658,4.81543 -10.91455,4.81543 -6.16211,0 -8.47412,-3.01905 -8.47412,-5.45899 0,-9.05176 26.00147,0 26.00147,-16.75293 0,-8.41211 -8.53907,-13.48486 -17.78467,-13.48486 -5.64844,0 -12.19678,2.11767 -17.26953,7.44678 z" /><path
       id="path22"
       style="fill:#0f70b5;fill-opacity:1;fill-rule:nonzero;stroke:none"
       d="m 252.60498,427.96484 c -4.49121,-5.64697 -10.7832,-8.27978 -17.20459,-8.27978 -12.06934,0 -21.63525,9.18115 -21.63525,20.99267 0,11.81446 9.56591,20.99317 21.63525,20.99317 6.42139,0 12.71338,-2.63037 17.20459,-8.28125 l -6.16211,-4.62207 c -2.56933,3.72461 -6.48486,5.84228 -11.04248,5.84228 -7.25635,0 -13.80225,-6.09912 -13.80225,-13.93213 0,-7.833 6.5459,-13.93164 13.80225,-13.93164 4.55762,0 8.60254,2.12012 11.17188,5.58594 z" /><path
       id="path24"
       style="fill:#0f70b5;fill-opacity:1;fill-rule:nonzero;stroke:none"
       d="m 260.24512,433.59033 h -4.81397 l -0.0405,6.37012 h 4.8125 l 0.042,20.87744 h 7.44726 v -20.88867 h 18.42481 v 20.88867 h 7.44629 v -40.32031 h -7.44629 v 13.07275 h -18.42481 v -13.07275 h -7.44726 v 13.07275 z" /><path
       id="path26"
       style="fill:#0f70b5;fill-opacity:1;fill-rule:nonzero;stroke:none"
       d="m 310.5752,445.23828 v -24.7207 h -7.44727 v 41.15332 l 26,-25.54785 v 24.71484 h 7.44434 v -41.15283 z" /><path
       id="path28"
       style="fill:#0f70b5;fill-opacity:1;fill-rule:nonzero;stroke:none"
       d="m 351.21289,440.67773 c 0,7.83301 6.55078,13.93213 13.80469,13.93213 7.2539,0 13.7998,-6.09912 13.7998,-13.93213 0,-7.833 -6.5459,-13.93164 -13.7998,-13.93164 -7.25391,0 -13.80469,6.09864 -13.80469,13.93164 m -7.83301,0 c 0,-11.81152 9.56739,-20.99267 21.6377,-20.99267 12.06836,0 21.63281,9.18115 21.63281,20.99267 0,11.81446 -9.56445,20.99317 -21.63281,20.99317 -12.07031,0 -21.6377,-9.17871 -21.6377,-20.99317 z" /><path
       id="path30"
       style="fill:#0f70b5;fill-opacity:1;fill-rule:nonzero;stroke:none"
       d="m 398.71875,440.67773 c 0,7.83301 6.54785,13.93213 13.80176,13.93213 7.25488,0 13.80566,-6.09912 13.80566,-13.93213 0,-7.833 -6.55078,-13.93164 -13.80566,-13.93164 -7.25391,0 -13.80176,6.09864 -13.80176,13.93164 m -7.83105,0 c 0,-11.81152 9.5625,-20.99267 21.63281,-20.99267 12.07129,0 21.63281,9.18115 21.63281,20.99267 0,11.81446 -9.56152,20.99317 -21.63281,20.99317 -12.07031,0 -21.63281,-9.17871 -21.63281,-20.99317 z" /><path
       id="path32"
       style="fill:#0f70b5;fill-opacity:1;fill-rule:nonzero;stroke:none"
       d="m 449.5,453.77441 h 11.16895 c 5.2666,0 7.64062,-3.14355 7.64062,-6.74121 0,-3.59521 -2.37402,-6.74121 -7.64062,-6.74121 H 449.5 v 13.48242 m -7.44727,-33.25683 H 449.5 v 12.71338 h 9.11523 l 8.41211,-12.71338 h 9.3711 l -10.08008,14.38379 c 5.39062,1.66845 9.43555,6.28955 9.43555,12.13183 0,7.89893 -5.51758,13.80469 -14.50879,13.80469 h -19.19239 v -20.5459 h -4.8164 v -7.06103 h 4.8164 z" /><path
       id="path34"
       style="fill:none;stroke:#8cb3dc;stroke-width:2.59998989;stroke-linecap:butt;stroke-linejoin:miter;stroke-miterlimit:4;stroke-dasharray:none;stroke-opacity:1"
       d="m 107.97266,461.49561 c -5.83741,-6.22803 -9.35889,-14.27442 -9.35889,-23.06202 0,-8.81836 3.54541,-16.89257 9.42334,-23.13086" /><path
       id="path36"
       style="fill:#8eb4dd;fill-opacity:1;fill-rule:nonzero;stroke:none"
       d="m 482.25586,433.24561 h 31.21777 v 6.98242 h -31.21777 z" /><path
       id="path38"
       style="fill:#8eb4dd;fill-opacity:1;fill-rule:nonzero;stroke:none"
       d="m 225.8252,391.86621 h 8.10693 v 4.48926 h -8.10693 z" /><path
       id="path40"
       style="fill:#8eb4dd;fill-opacity:1;fill-rule:nonzero;stroke:none"
       d="m 389.86133,391.86621 h 8.10742 v 4.48926 h -8.10742 z" /><path
       id="path42"
       style="fill:#231f20;fill-opacity:1;fill-rule:nonzero;stroke:none"
       d="m 241.05176,388.63965 v 12.46875 h 1.67041 l 6.39209,-9.7832 v 9.7832 h 1.5625 v -12.46875 h -1.67041 l -6.39209,9.78223 v -9.78223 z" /><path
       id="path44"
       style="fill:#231f20;fill-opacity:1;fill-rule:nonzero;stroke:none"
       d="m 258.98975,389.76465 c -0.54639,-0.47949 -1.07862,-0.81934 -1.5962,-1.0166 -0.51806,-0.19727 -1.07373,-0.2959 -1.66748,-0.2959 -0.97998,0 -1.73291,0.24121 -2.25927,0.72363 -0.52637,0.48242 -0.78955,1.09766 -0.78955,1.84863 0,0.44043 0.0991,0.8418 0.29834,1.20606 0.19873,0.36328 0.45898,0.65527 0.78125,0.875 0.32226,0.2207 0.68505,0.38672 1.08837,0.5 0.29688,0.0781 0.74512,0.1543 1.34473,0.22851 1.22119,0.14649 2.12061,0.32129 2.69776,0.52442 0.005,0.20801 0.008,0.33984 0.008,0.39648 0,0.61817 -0.14258,1.05469 -0.42774,1.30762 -0.38574,0.34277 -0.95849,0.51465 -1.71875,0.51465 -0.70996,0 -1.23388,-0.12598 -1.57178,-0.37891 -0.33837,-0.25293 -0.58837,-0.69922 -0.75048,-1.33984 l -1.5,0.21875 c 0.13379,0.64062 0.35498,1.15723 0.66259,1.55176 0.30762,0.39453 0.75245,0.69726 1.33448,0.91015 0.58203,0.21289 1.25586,0.31934 2.02246,0.31934 0.76074,0 1.3789,-0.0908 1.85449,-0.27246 0.47559,-0.18164 0.82519,-0.41016 1.04883,-0.68555 0.22363,-0.27539 0.38037,-0.62402 0.47021,-1.04394 0.0503,-0.26075 0.0757,-0.73047 0.0757,-1.40723 v -2.0332 c 0,-1.41797 0.0312,-2.31446 0.0942,-2.69141 0.063,-0.37695 0.18799,-0.73926 0.37452,-1.08496 h -1.53125 c -0.17871,0.32031 -0.29297,0.69531 -0.34375,1.125 m -0.0937,3.40625 c -0.55274,-0.22656 -1.38135,-0.41895 -2.48584,-0.57715 -0.62598,-0.0908 -1.06836,-0.19238 -1.32764,-0.30566 -0.25928,-0.11329 -0.45947,-0.27832 -0.6001,-0.49707 -0.14111,-0.2168 -0.21142,-0.45899 -0.21142,-0.72461 0,-0.40821 0.15332,-0.74805 0.45996,-1.01953 0.30664,-0.27149 0.75537,-0.40723 1.34619,-0.40723 0.58496,0 1.10547,0.12793 1.56152,0.38379 0.45557,0.25586 0.79053,0.6084 1.0044,1.05664 0.16308,0.3457 0.24463,0.85547 0.24463,1.5293 l 0.008,0.56152 z" /><path
       id="path46"
       style="fill:#231f20;fill-opacity:1;fill-rule:nonzero;stroke:none"
       d="m 268.44141,391.95215 1.46875,-0.21875 c -0.16114,-1.02637 -0.57227,-1.83008 -1.23438,-2.41113 -0.66211,-0.58008 -1.4751,-0.87012 -2.43896,-0.87012 -1.20801,0 -2.1792,0.40234 -2.91309,1.20801 -0.73437,0.80468 -1.10107,1.95898 -1.10107,3.46093 0,0.97266 0.15722,1.82227 0.47265,2.55079 0.31494,0.72851 0.79444,1.27539 1.43897,1.63964 0.64404,0.36426 1.34521,0.54688 2.10302,0.54688 0.95606,0 1.73829,-0.24707 2.34668,-0.74121 0.6084,-0.49317 0.99805,-1.19434 1.16993,-2.10254 l -1.46875,-0.21875 c -0.1377,0.60058 -0.38184,1.05371 -0.73194,1.35644 -0.35009,0.30469 -0.77295,0.45606 -1.26904,0.45606 -0.75,0 -1.35889,-0.27637 -1.82764,-0.82715 -0.46875,-0.55176 -0.70263,-1.42383 -0.70263,-2.61719 0,-1.21093 0.22754,-2.08984 0.68261,-2.63867 0.45508,-0.54883 1.04883,-0.82324 1.78174,-0.82324 0.58838,0 1.07959,0.18359 1.47363,0.55176 0.39405,0.36816 0.64405,0.93359 0.74952,1.69824 z" /><path
       id="path48"
       style="fill:#231f20;fill-opacity:1;fill-rule:nonzero;stroke:none"
       d="m 271.18506,388.63965 v 12.46875 h 1.5 v -4.48633 c 0.69726,0.82422 1.57764,1.23633 2.64014,1.23633 0.65332,0 1.2207,-0.13184 1.70214,-0.39551 0.48145,-0.26269 0.82618,-0.62695 1.0337,-1.08984 0.20751,-0.46485 0.31152,-1.1377 0.31152,-2.02051 v -5.71289 h -1.5 v 5.71582 c 0,0.76367 -0.16211,1.32031 -0.48535,1.66797 -0.32325,0.34765 -0.78076,0.52246 -1.37207,0.52246 -0.44239,0 -0.8584,-0.11817 -1.24805,-0.35254 -0.38965,-0.23535 -0.66748,-0.55371 -0.8335,-0.95508 -0.16601,-0.40234 -0.24853,-0.95703 -0.24853,-1.66504 v -4.93359 z" /><path
       id="path50"
       style="fill:#231f20;fill-opacity:1;fill-rule:nonzero;stroke:none"
       d="m 280.63672,388.63965 v 9.03125 h 1.34375 v -1.39746 c 0.34228,0.64551 0.6582,1.07031 0.94824,1.27636 0.29004,0.20606 0.60889,0.3086 0.95703,0.3086 0.50196,0 1.0127,-0.16113 1.53223,-0.48242 l -0.52588,-1.39942 c -0.36084,0.19141 -0.72168,0.28809 -1.08203,0.28809 -0.32227,0 -0.61182,-0.10059 -0.86865,-0.30078 -0.25684,-0.2002 -0.44141,-0.47949 -0.55323,-0.83496 -0.16797,-0.542 -0.25146,-1.13477 -0.25146,-1.7793 v -4.70996 z" /><path
       id="path52"
       style="fill:#231f20;fill-opacity:1;fill-rule:nonzero;stroke:none"
       d="m 286.4082,399.3584 v 1.75 h 1.5 v -1.75 h -1.5 m 0,-10.71875 v 9.03125 h 1.5 v -9.03125 z" /><path
       id="path54"
       style="fill:#231f20;fill-opacity:1;fill-rule:nonzero;stroke:none"
       d="m 295.91504,391.95215 1.46875,-0.21875 c -0.16113,-1.02637 -0.57227,-1.83008 -1.23438,-2.41113 -0.66211,-0.58008 -1.47558,-0.87012 -2.43896,-0.87012 -1.20801,0 -2.1792,0.40234 -2.91309,1.20801 -0.73437,0.80468 -1.10107,1.95898 -1.10107,3.46093 0,0.97266 0.15723,1.82227 0.47266,2.55079 0.31494,0.72851 0.79443,1.27539 1.43896,1.63964 0.64404,0.36426 1.34522,0.54688 2.10303,0.54688 0.95605,0 1.73828,-0.24707 2.34668,-0.74121 0.6084,-0.49317 0.99804,-1.19434 1.16992,-2.10254 l -1.46875,-0.21875 c -0.1377,0.60058 -0.38184,1.05371 -0.73242,1.35644 -0.34961,0.30469 -0.77246,0.45606 -1.26856,0.45606 -0.75,0 -1.35888,-0.27637 -1.82763,-0.82715 -0.46875,-0.55176 -0.70264,-1.42383 -0.70264,-2.61719 0,-1.21093 0.22754,-2.08984 0.68262,-2.63867 0.45507,-0.54883 1.04882,-0.82324 1.78173,-0.82324 0.58838,0 1.07959,0.18359 1.47315,0.55176 0.39453,0.36816 0.64453,0.93359 0.75,1.69824 z" /><path
       id="path56"
       style="fill:#231f20;fill-opacity:1;fill-rule:nonzero;stroke:none"
       d="m 298.65918,388.63965 v 12.46875 h 1.5 v -4.48633 c 0.69727,0.82422 1.57715,1.23633 2.63965,1.23633 0.65332,0 1.2207,-0.13184 1.70215,-0.39551 0.48144,-0.26269 0.82617,-0.62695 1.03418,-1.08984 0.20703,-0.46485 0.31152,-1.1377 0.31152,-2.02051 v -5.71289 h -1.5 v 5.71582 c 0,0.76367 -0.16211,1.32031 -0.48535,1.66797 -0.32324,0.34765 -0.78125,0.52246 -1.37207,0.52246 -0.44238,0 -0.8584,-0.11817 -1.24805,-0.35254 -0.38965,-0.23535 -0.66797,-0.55371 -0.83398,-0.95508 -0.16602,-0.40234 -0.24805,-0.95703 -0.24805,-1.66504 v -4.93359 z" /><path
       id="path58"
       style="fill:#231f20;fill-opacity:1;fill-rule:nonzero;stroke:none"
       d="m 311.42285,390.00586 0.1875,-1.35156 c -0.42285,-0.0908 -0.80078,-0.13672 -1.13476,-0.13672 -0.54493,0 -0.9668,0.0879 -1.26758,0.26367 -0.29981,0.17578 -0.51172,0.40723 -0.63379,0.69336 -0.12207,0.28711 -0.18262,0.89062 -0.18262,1.81055 v 5.20117 h -1.09375 v 1.1875 h 1.09375 v 2.23535 l 1.5,0.91797 v -3.15332 h 1.53125 v -1.1875 h -1.53125 v -5.28125 c 0,-0.43653 0.0264,-0.7168 0.0801,-0.8418 0.0537,-0.125 0.14062,-0.22461 0.26172,-0.29785 0.12109,-0.0732 0.29492,-0.11035 0.52051,-0.11035 0.16894,0 0.39257,0.0166 0.66894,0.0508 z" /><path
       id="path60"
       style="fill:#231f20;fill-opacity:1;fill-rule:nonzero;stroke:none"
       d="m 318.9248,391.57715 1.55958,-0.21875 c -0.24415,-0.9209 -0.69727,-1.63574 -1.35743,-2.14356 -0.66113,-0.50879 -1.50586,-0.76269 -2.5332,-0.76269 -1.29395,0 -2.32031,0.40527 -3.07812,1.21582 -0.75782,0.81055 -1.13672,1.94726 -1.13672,3.41113 0,1.51367 0.38281,2.68848 1.14941,3.52442 0.7666,0.83593 1.76074,1.25488 2.98242,1.25488 1.18262,0 2.14942,-0.40918 2.89942,-1.22949 0.75,-0.81836 1.125,-1.97168 1.125,-3.45703 0,-0.0918 -0.003,-0.22657 -0.009,-0.40723 h -6.61621 c 0.0557,-0.98926 0.33105,-1.74707 0.82617,-2.27344 0.49512,-0.52637 1.1123,-0.78906 1.85156,-0.78906 0.55078,0 1.02051,0.14941 1.41016,0.44726 0.38965,0.29786 0.69824,0.77442 0.92675,1.42774 m -4.92089,2.4375 h 4.9375 c -0.0674,0.75976 -0.25586,1.3291 -0.56641,1.70996 -0.47754,0.58887 -1.09668,0.88379 -1.85645,0.88379 -0.68847,0 -1.26757,-0.23535 -1.73632,-0.70606 -0.46973,-0.4707 -0.72852,-1.09961 -0.77832,-1.88769 z" /><path
       id="path62"
       style="fill:#231f20;fill-opacity:1;fill-rule:nonzero;stroke:none"
       d="m 322.36133,388.63965 v 9.03125 h 1.34375 v -1.2832 c 0.65039,0.98046 1.58887,1.4707 2.81738,1.4707 0.5332,0 1.02442,-0.0977 1.47168,-0.29297 0.44727,-0.19531 0.78125,-0.45215 1.00391,-0.76855 0.22265,-0.31641 0.37793,-0.69336 0.46679,-1.12891 0.0557,-0.2832 0.084,-0.77832 0.084,-1.48535 v -5.54297 h -1.53125 v 5.49121 c 0,0.62402 -0.0586,1.08984 -0.17383,1.39844 -0.11621,0.30859 -0.32129,0.55566 -0.61523,0.74023 -0.29493,0.1836 -0.64063,0.27637 -1.03711,0.27637 -0.63379,0 -1.18067,-0.20703 -1.64063,-0.62012 -0.45996,-0.41406 -0.68945,-1.19922 -0.68945,-2.35547 v -4.93066 h -1.5 z" /><path
       id="path64"
       style="fill:#231f20;fill-opacity:1;fill-rule:nonzero;stroke:none"
       d="m 335.125,390.00586 0.1875,-1.35156 c -0.42285,-0.0908 -0.80078,-0.13672 -1.13379,-0.13672 -0.54492,0 -0.96777,0.0879 -1.26758,0.26367 -0.30078,0.17578 -0.51172,0.40723 -0.63379,0.69336 -0.12207,0.28711 -0.18359,0.89062 -0.18359,1.81055 v 5.20117 H 331 v 1.1875 h 1.09375 v 2.23535 l 1.5,0.91797 v -3.15332 h 1.53125 v -1.1875 h -1.53125 v -5.28125 c 0,-0.43653 0.0264,-0.7168 0.0801,-0.8418 0.0537,-0.125 0.1416,-0.22461 0.26269,-0.29785 0.1211,-0.0732 0.29493,-0.11035 0.52051,-0.11035 0.16895,0 0.3916,0.0166 0.66797,0.0508 z" /><path
       id="path66"
       style="fill:#231f20;fill-opacity:1;fill-rule:nonzero;stroke:none"
       d="m 342.62695,391.57715 1.55957,-0.21875 c -0.24414,-0.9209 -0.69726,-1.63574 -1.35742,-2.14356 -0.66113,-0.50879 -1.50586,-0.76269 -2.5332,-0.76269 -1.29395,0 -2.32031,0.40527 -3.07813,1.21582 -0.75781,0.81055 -1.13672,1.94726 -1.13672,3.41113 0,1.51367 0.38282,2.68848 1.14942,3.52442 0.7666,0.83593 1.76074,1.25488 2.98242,1.25488 1.18262,0 2.14941,-0.40918 2.89941,-1.22949 0.75,-0.81836 1.125,-1.97168 1.125,-3.45703 0,-0.0918 -0.003,-0.22657 -0.009,-0.40723 h -6.61622 c 0.0557,-0.98926 0.33106,-1.74707 0.82618,-2.27344 0.49511,-0.52637 1.1123,-0.78906 1.85156,-0.78906 0.55078,0 1.02051,0.14941 1.41016,0.44726 0.38964,0.29786 0.69824,0.77442 0.92675,1.42774 m -4.9209,2.4375 h 4.9375 c -0.0674,0.75976 -0.25585,1.3291 -0.5664,1.70996 -0.47754,0.58887 -1.09668,0.88379 -1.85645,0.88379 -0.68847,0 -1.26757,-0.23535 -1.73632,-0.70606 -0.46973,-0.4707 -0.72852,-1.09961 -0.77833,-1.88769 z" /><path
       id="path68"
       style="fill:#231f20;fill-opacity:1;fill-rule:nonzero;stroke:none"
       d="m 351.84473,391.95215 1.46875,-0.21875 c -0.16114,-1.02637 -0.57227,-1.83008 -1.23438,-2.41113 -0.66211,-0.58008 -1.47558,-0.87012 -2.43847,-0.87012 -1.20899,0 -2.17969,0.40234 -2.91407,1.20801 -0.73437,0.80468 -1.10058,1.95898 -1.10058,3.46093 0,0.97266 0.15722,1.82227 0.47265,2.55079 0.31543,0.72851 0.79395,1.27539 1.43848,1.63964 0.64453,0.36426 1.3457,0.54688 2.10352,0.54688 0.95605,0 1.73828,-0.24707 2.34667,-0.74121 0.6084,-0.49317 0.99805,-1.19434 1.16993,-2.10254 l -1.46875,-0.21875 c -0.1377,0.60058 -0.38184,1.05371 -0.73145,1.35644 -0.35058,0.30469 -0.77344,0.45606 -1.26953,0.45606 -0.75,0 -1.35937,-0.27637 -1.82812,-0.82715 -0.46875,-0.55176 -0.70215,-1.42383 -0.70215,-2.61719 0,-1.21093 0.22754,-2.08984 0.68261,-2.63867 0.45508,-0.54883 1.04883,-0.82324 1.78125,-0.82324 0.58887,0 1.08008,0.18359 1.47461,0.55176 0.39356,0.36816 0.64356,0.93359 0.74903,1.69824 z" /><path
       id="path70"
       style="fill:#231f20;fill-opacity:1;fill-rule:nonzero;stroke:none"
       d="m 354.58887,388.63965 v 12.46875 h 1.5 v -4.48633 c 0.69726,0.82422 1.57715,1.23633 2.63965,1.23633 0.65332,0 1.2207,-0.13184 1.70214,-0.39551 0.48145,-0.26269 0.82618,-0.62695 1.03418,-1.08984 0.20704,-0.46485 0.31153,-1.1377 0.31153,-2.02051 v -5.71289 h -1.5 v 5.71582 c 0,0.76367 -0.16211,1.32031 -0.48535,1.66797 -0.32325,0.34765 -0.78125,0.52246 -1.37207,0.52246 -0.44239,0 -0.8584,-0.11817 -1.24805,-0.35254 -0.38965,-0.23535 -0.66797,-0.55371 -0.83399,-0.95508 -0.16601,-0.40234 -0.24804,-0.95703 -0.24804,-1.66504 v -4.93359 z" /><path
       id="path72"
       style="fill:#231f20;fill-opacity:1;fill-rule:nonzero;stroke:none"
       d="m 364.07129,388.63965 v 9.03125 h 1.34375 v -1.2832 c 0.65039,0.98046 1.58887,1.4707 2.81738,1.4707 0.53321,0 1.02442,-0.0977 1.47168,-0.29297 0.44727,-0.19531 0.78125,-0.45215 1.00391,-0.76855 0.22265,-0.31641 0.37793,-0.69336 0.46679,-1.12891 0.0557,-0.2832 0.084,-0.77832 0.084,-1.48535 v -5.54297 h -1.53125 v 5.49121 c 0,0.62402 -0.0586,1.08984 -0.17383,1.39844 -0.11621,0.30859 -0.32129,0.55566 -0.61523,0.74023 -0.29493,0.1836 -0.64063,0.27637 -1.03711,0.27637 -0.63379,0 -1.18067,-0.20703 -1.64063,-0.62012 -0.45996,-0.41406 -0.68945,-1.19922 -0.68945,-2.35547 v -4.93066 h -1.5 z" /><path
       id="path74"
       style="fill:#231f20;fill-opacity:1;fill-rule:nonzero;stroke:none"
       d="m 373.61621,399.3584 v 1.75 h 1.5 v -1.75 h -1.5 m 0,-10.71875 v 9.03125 h 1.5 v -9.03125 z" /><path
       id="path76"
       style="fill:#231f20;fill-opacity:1;fill-rule:nonzero;stroke:none"
       d="m 377.3418,388.63965 v 12.46875 h 1.5 v -7.09473 l 3.55078,3.65723 h 1.9414 l -3.38085,-3.35547 3.7246,-5.67578 h -1.80566 l -2.9668,4.63574 -1.06347,-1.05469 v -3.58105 z" /><path
       id="path78"
       style="fill:#231f20;fill-opacity:1;fill-rule:nonzero;stroke:none"
       d="m 404.75293,392.63965 1.53125,0.125 c 0.0713,-0.62402 0.23828,-1.13574 0.50098,-1.53516 0.26172,-0.39941 0.66797,-0.72363 1.21972,-0.96972 0.55176,-0.24707 1.17285,-0.37012 1.86231,-0.37012 0.61133,0 1.15234,0.0928 1.62109,0.28027 0.46875,0.1875 0.81738,0.44336 1.04688,0.76953 0.22851,0.32618 0.34277,0.68262 0.34277,1.06836 0,0.39258 -0.11328,0.73438 -0.33984,1.02735 -0.22657,0.29199 -0.59278,0.53711 -1.09864,0.73632 -0.32422,0.13086 -1.04101,0.33301 -2.15039,0.6084 -1.10937,0.27539 -1.88867,0.53516 -2.33789,0.78028 -0.58203,0.3125 -1.01562,0.70019 -1.30078,1.16406 -0.28613,0.46289 -0.42871,0.98242 -0.42871,1.55664 0,0.63086 0.17383,1.2207 0.52246,1.76953 0.34766,0.54883 0.85547,0.96582 1.52539,1.25 0.66797,0.28418 1.41113,0.42676 2.22852,0.42676 0.90039,0 1.69531,-0.14942 2.38281,-0.44629 0.68848,-0.29688 1.21777,-0.73438 1.58789,-1.31152 0.37012,-0.57715 0.56836,-1.23145 0.59668,-1.96094 l -1.5625,-0.125 c -0.083,0.7832 -0.36133,1.37402 -0.83691,1.77441 -0.47461,0.40039 -1.17676,0.60059 -2.10547,0.60059 -0.9668,0 -1.6709,-0.18262 -2.11328,-0.54981 -0.44239,-0.36523 -0.66309,-0.80664 -0.66309,-1.32324 0,-0.44824 0.15625,-0.81738 0.46973,-1.10644 0.30761,-0.28907 1.11132,-0.58594 2.41015,-0.88965 1.29883,-0.30371 2.19336,-0.56934 2.68555,-0.7959 0.71289,-0.33398 1.24023,-0.75781 1.58008,-1.26953 0.33984,-0.51367 0.51074,-1.10352 0.51074,-1.77246 0,-0.66309 -0.18555,-1.28809 -0.55566,-1.87403 -0.3711,-0.58593 -0.9043,-1.04296 -1.59864,-1.36816 -0.69433,-0.3252 -1.47558,-0.48828 -2.34472,-0.48828 -1.10157,0 -2.02539,0.16504 -2.76953,0.49316 -0.74415,0.3291 -1.32813,0.82422 -1.75098,1.48438 -0.42285,0.66015 -0.64551,1.40722 -0.66797,2.24121 z" /><path
       id="path80"
       style="fill:#231f20;fill-opacity:1;fill-rule:nonzero;stroke:none"
       d="m 416.40625,385.16797 -0.1875,1.41992 c 0.3291,-0.0898 0.61621,-0.13574 0.86133,-0.13574 0.33398,0 0.60156,0.0576 0.80176,0.16992 0.20117,0.11426 0.36523,0.27246 0.49414,0.47754 0.0947,0.15234 0.24707,0.5332 0.45898,1.14062 0.0283,0.084 0.0723,0.20899 0.13379,0.37403 l -3.375,9.05664 h 1.60547 l 1.84961,-5.22168 c 0.23926,-0.66309 0.4541,-1.35938 0.64453,-2.08984 0.18359,0.69726 0.39551,1.3789 0.63574,2.04687 l 1.88965,5.26465 h 1.5 l -3.36621,-9.18652 c -0.36035,-0.98926 -0.63965,-1.66993 -0.83887,-2.04297 -0.2666,-0.50293 -0.57129,-0.8711 -0.91406,-1.10645 -0.34375,-0.2334 -0.75293,-0.35156 -1.22949,-0.35156 -0.28809,0 -0.60938,0.0615 -0.96387,0.18457 z" /><path
       id="path82"
       style="fill:#231f20;fill-opacity:1;fill-rule:nonzero;stroke:none"
       d="m 424.43164,391.3584 1.46875,0.21875 c 0.083,-0.60547 0.31445,-1.06934 0.69434,-1.3916 0.3789,-0.32227 0.90918,-0.4834 1.59082,-0.4834 0.68652,0 1.19629,0.14258 1.52929,0.42871 0.33204,0.28613 0.49805,0.62109 0.49805,1.00586 0,0.3457 -0.15039,0.61719 -0.45215,0.81641 -0.21094,0.13476 -0.7207,0.30761 -1.52929,0.51757 -1.08887,0.28223 -1.84473,0.52637 -2.26563,0.73243 -0.4209,0.20605 -0.74023,0.49218 -0.95801,0.85546 -0.21777,0.36524 -0.32617,0.76758 -0.32617,1.20704 0,0.40136 0.0898,0.77246 0.26856,1.11425 0.17968,0.3418 0.42382,0.62598 0.73242,0.85157 0.23144,0.1748 0.54785,0.32324 0.94726,0.44433 0.40039,0.1211 0.8291,0.18262 1.28711,0.18262 0.68946,0 1.29492,-0.10254 1.81641,-0.30567 0.52148,-0.20507 0.90625,-0.48046 1.1543,-0.82812 0.24804,-0.34863 0.41894,-0.81445 0.51269,-1.39746 l -1.46875,-0.21875 c -0.0664,0.47168 -0.25684,0.83887 -0.57324,1.10351 -0.31641,0.26465 -0.76367,0.39649 -1.34082,0.39649 -0.68262,0 -1.16992,-0.11621 -1.46094,-0.34863 -0.29199,-0.23243 -0.4375,-0.50391 -0.4375,-0.81543 0,-0.19825 0.0605,-0.37598 0.18164,-0.53516 0.1211,-0.16406 0.31055,-0.2998 0.56934,-0.40723 0.14843,-0.0566 0.58593,-0.1875 1.3125,-0.39062 1.05078,-0.28906 1.78613,-0.52442 2.20801,-0.70801 0.42187,-0.18359 0.75292,-0.45019 0.99316,-0.7998 0.24023,-0.35157 0.36035,-0.78516 0.36035,-1.30469 0,-0.50879 -0.14551,-0.98731 -0.43555,-1.43653 -0.29004,-0.44921 -0.70898,-0.79589 -1.25586,-1.04199 -0.54687,-0.24511 -1.16601,-0.36816 -1.85644,-0.36816 -1.14453,0 -2.0166,0.24414 -2.61621,0.7334 -0.59961,0.48828 -0.98242,1.21289 -1.14844,2.17285 z" /><path
       id="path84"
       style="fill:#231f20;fill-opacity:1;fill-rule:nonzero;stroke:none"
       d="m 436.80078,390.00586 0.1875,-1.35156 c -0.42285,-0.0908 -0.80078,-0.13672 -1.13476,-0.13672 -0.54493,0 -0.9668,0.0879 -1.26758,0.26367 -0.29981,0.17578 -0.51172,0.40723 -0.63379,0.69336 -0.12207,0.28711 -0.18262,0.89062 -0.18262,1.81055 v 5.20117 h -1.09375 v 1.1875 h 1.09375 v 2.23535 l 1.5,0.91797 v -3.15332 h 1.53125 v -1.1875 h -1.53125 v -5.28125 c 0,-0.43653 0.0264,-0.7168 0.0801,-0.8418 0.0537,-0.125 0.14062,-0.22461 0.26172,-0.29785 0.12109,-0.0732 0.29492,-0.11035 0.52051,-0.11035 0.16894,0 0.39257,0.0166 0.66894,0.0508 z" /><path
       id="path86"
       style="fill:#231f20;fill-opacity:1;fill-rule:nonzero;stroke:none"
       d="m 444.30273,391.57715 1.55957,-0.21875 c -0.24414,-0.9209 -0.69726,-1.63574 -1.35742,-2.14356 -0.66113,-0.50879 -1.50586,-0.76269 -2.5332,-0.76269 -1.29395,0 -2.32031,0.40527 -3.07813,1.21582 -0.75781,0.81055 -1.13671,1.94726 -1.13671,3.41113 0,1.51367 0.38281,2.68848 1.14941,3.52442 0.7666,0.83593 1.76074,1.25488 2.98242,1.25488 1.18262,0 2.14942,-0.40918 2.89942,-1.22949 0.75,-0.81836 1.125,-1.97168 1.125,-3.45703 0,-0.0918 -0.003,-0.22657 -0.009,-0.40723 h -6.61621 c 0.0557,-0.98926 0.33105,-1.74707 0.82617,-2.27344 0.49512,-0.52637 1.1123,-0.78906 1.85156,-0.78906 0.55078,0 1.02051,0.14941 1.41016,0.44726 0.38965,0.29786 0.69824,0.77442 0.92675,1.42774 m -4.92089,2.4375 h 4.9375 c -0.0674,0.75976 -0.25586,1.3291 -0.56641,1.70996 -0.47754,0.58887 -1.09668,0.88379 -1.85645,0.88379 -0.68847,0 -1.26757,-0.23535 -1.73632,-0.70606 -0.46973,-0.4707 -0.72852,-1.09961 -0.77832,-1.88769 z" /><path
       id="path88"
       style="fill:#231f20;fill-opacity:1;fill-rule:nonzero;stroke:none"
       d="m 447.73926,388.63965 v 9.03125 h 1.34375 v -1.26953 c 0.27734,0.4375 0.64551,0.79004 1.10547,1.05664 0.45996,0.2666 0.98437,0.40039 1.57226,0.40039 0.6543,0 1.19043,-0.1377 1.60938,-0.41309 0.41797,-0.27539 0.71386,-0.66015 0.88574,-1.15429 0.70215,1.04492 1.61523,1.56738 2.74121,1.56738 0.88086,0 1.55762,-0.24707 2.03125,-0.74317 0.47363,-0.49414 0.71094,-1.25781 0.71094,-2.2871 v -6.18848 h -1.5 v 5.6875 c 0,0.6123 -0.0488,1.05176 -0.14649,1.32129 -0.0976,0.26953 -0.27441,0.48633 -0.53027,0.65039 -0.25586,0.16406 -0.55664,0.24707 -0.90234,0.24707 -0.62403,0 -1.14161,-0.21192 -1.55371,-0.63379 -0.41211,-0.42188 -0.61719,-1.09766 -0.61719,-2.02734 v -5.24512 h -1.5 v 5.86621 c 0,0.67969 -0.12207,1.18945 -0.36621,1.5293 -0.24414,0.33984 -0.64258,0.51074 -1.19727,0.51074 -0.4209,0 -0.81055,-0.11426 -1.16797,-0.34082 -0.35742,-0.22656 -0.61718,-0.55762 -0.77734,-0.99414 -0.16113,-0.43653 -0.24121,-1.06543 -0.24121,-1.88672 v -4.68457 z" /><path
       id="path90"
       style="fill:#231f20;fill-opacity:1;fill-rule:nonzero;stroke:none"
       d="m 465.22363,390.00586 0.1875,-1.35156 c -0.42285,-0.0908 -0.80078,-0.13672 -1.13476,-0.13672 -0.54492,0 -0.9668,0.0879 -1.26758,0.26367 -0.29981,0.17578 -0.51172,0.40723 -0.63379,0.69336 -0.12207,0.28711 -0.18262,0.89062 -0.18262,1.81055 v 5.20117 h -1.09375 v 1.1875 h 1.09375 v 2.23535 l 1.5,0.91797 v -3.15332 h 1.53125 v -1.1875 h -1.53125 v -5.28125 c 0,-0.43653 0.0264,-0.7168 0.0801,-0.8418 0.0537,-0.125 0.14063,-0.22461 0.26172,-0.29785 0.12109,-0.0732 0.29492,-0.11035 0.52051,-0.11035 0.16894,0 0.39258,0.0166 0.66894,0.0508 z" /><path
       id="path92"
       style="fill:#231f20;fill-opacity:1;fill-rule:nonzero;stroke:none"
       d="m 472.72559,391.57715 1.55957,-0.21875 c -0.24414,-0.9209 -0.69727,-1.63574 -1.35743,-2.14356 -0.66113,-0.50879 -1.50585,-0.76269 -2.5332,-0.76269 -1.29394,0 -2.32031,0.40527 -3.07812,1.21582 -0.75782,0.81055 -1.13672,1.94726 -1.13672,3.41113 0,1.51367 0.38281,2.68848 1.14941,3.52442 0.7666,0.83593 1.76074,1.25488 2.98242,1.25488 1.18262,0 2.14942,-0.40918 2.89942,-1.22949 0.75,-0.81836 1.125,-1.97168 1.125,-3.45703 0,-0.0918 -0.003,-0.22657 -0.009,-0.40723 h -6.61621 c 0.0557,-0.98926 0.33105,-1.74707 0.82617,-2.27344 0.49512,-0.52637 1.1123,-0.78906 1.85156,-0.78906 0.55078,0 1.02051,0.14941 1.41016,0.44726 0.38965,0.29786 0.69824,0.77442 0.92676,1.42774 m -4.9209,2.4375 h 4.9375 c -0.0674,0.75976 -0.25586,1.3291 -0.56641,1.70996 -0.47754,0.58887 -1.09668,0.88379 -1.85644,0.88379 -0.68848,0 -1.26758,-0.23535 -1.73633,-0.70606 -0.46973,-0.4707 -0.72852,-1.09961 -0.77832,-1.88769 z" /><path
       id="path94"
       style="fill:#231f20;fill-opacity:1;fill-rule:nonzero;stroke:none"
       d="m 481.94336,391.95215 1.46875,-0.21875 c -0.16113,-1.02637 -0.57227,-1.83008 -1.23438,-2.41113 -0.6621,-0.58008 -1.47558,-0.87012 -2.43945,-0.87012 -1.20801,0 -2.17871,0.40234 -2.91308,1.20801 -0.73438,0.80468 -1.10059,1.95898 -1.10059,3.46093 0,0.97266 0.15723,1.82227 0.47266,2.55079 0.31445,0.72851 0.79394,1.27539 1.43847,1.63964 0.64453,0.36426 1.34571,0.54688 2.10352,0.54688 0.95605,0 1.73828,-0.24707 2.34668,-0.74121 0.6084,-0.49317 0.99804,-1.19434 1.16992,-2.10254 l -1.46875,-0.21875 c -0.1377,0.60058 -0.38184,1.05371 -0.73242,1.35644 -0.34961,0.30469 -0.77246,0.45606 -1.26856,0.45606 -0.75,0 -1.35937,-0.27637 -1.82812,-0.82715 -0.46875,-0.55176 -0.70215,-1.42383 -0.70215,-2.61719 0,-1.21093 0.22754,-2.08984 0.68262,-2.63867 0.45507,-0.54883 1.04882,-0.82324 1.78125,-0.82324 0.58886,0 1.08007,0.18359 1.47363,0.55176 0.39453,0.36816 0.64453,0.93359 0.75,1.69824 z" /><path
       id="path96"
       style="fill:#231f20;fill-opacity:1;fill-rule:nonzero;stroke:none"
       d="m 484.6875,388.63965 v 12.46875 h 1.5 v -4.48633 c 0.69727,0.82422 1.57715,1.23633 2.63965,1.23633 0.65332,0 1.2207,-0.13184 1.70215,-0.39551 0.48144,-0.26269 0.82617,-0.62695 1.03418,-1.08984 0.20703,-0.46485 0.31152,-1.1377 0.31152,-2.02051 v -5.71289 h -1.5 v 5.71582 c 0,0.76367 -0.16211,1.32031 -0.48535,1.66797 -0.32324,0.34765 -0.78125,0.52246 -1.37207,0.52246 -0.44238,0 -0.8584,-0.11817 -1.24805,-0.35254 -0.38965,-0.23535 -0.66797,-0.55371 -0.83398,-0.95508 -0.16602,-0.40234 -0.24805,-0.95703 -0.24805,-1.66504 v -4.93359 z" /><path
       id="path98"
       style="fill:#231f20;fill-opacity:1;fill-rule:nonzero;stroke:none"
       d="m 494.16992,388.63965 v 9.03125 h 1.34375 v -1.2832 c 0.65039,0.98046 1.58887,1.4707 2.81738,1.4707 0.53321,0 1.02442,-0.0977 1.47168,-0.29297 0.44727,-0.19531 0.78125,-0.45215 1.00391,-0.76855 0.22266,-0.31641 0.37793,-0.69336 0.4668,-1.12891 0.0557,-0.2832 0.084,-0.77832 0.084,-1.48535 v -5.54297 h -1.53125 v 5.49121 c 0,0.62402 -0.0586,1.08984 -0.17383,1.39844 -0.11621,0.30859 -0.32129,0.55566 -0.61523,0.74023 -0.29492,0.1836 -0.64063,0.27637 -1.03711,0.27637 -0.63379,0 -1.18066,-0.20703 -1.64062,-0.62012 -0.45997,-0.41406 -0.68946,-1.19922 -0.68946,-2.35547 v -4.93066 h -1.5 z" /><path
       id="path100"
       style="fill:#231f20;fill-opacity:1;fill-rule:nonzero;stroke:none"
       d="m 503.71484,399.3584 v 1.75 h 1.5 v -1.75 h -1.5 m 0,-10.71875 v 9.03125 h 1.5 v -9.03125 z" /><path
       id="path102"
       style="fill:#231f20;fill-opacity:1;fill-rule:nonzero;stroke:none"
       d="m 507.44043,388.63965 v 12.46875 h 1.5 v -7.09473 l 3.55078,3.65723 h 1.94043 l -3.38086,-3.35547 3.72461,-5.67578 h -1.80469 l -2.96777,4.63574 -1.0625,-1.05469 v -3.58105 z" /><path
       id="path104"
       style="fill:#231f20;fill-opacity:1;fill-rule:nonzero;stroke:none"
       d="m 84.63037,388.63965 v 12.46875 h 1.625 v -12.46875 z" /><path
       id="path106"
       style="fill:#231f20;fill-opacity:1;fill-rule:nonzero;stroke:none"
       d="m 88.89893,388.63965 v 9.03125 h 1.34375 v -1.2832 c 0.65039,0.98046 1.58935,1.4707 2.81787,1.4707 0.5332,0 1.02392,-0.0977 1.47119,-0.29297 0.44726,-0.19531 0.78174,-0.45215 1.00439,-0.76855 0.22217,-0.31641 0.37793,-0.69336 0.4668,-1.12891 0.05566,-0.2832 0.0835,-0.77832 0.0835,-1.48535 v -5.54297 h -1.53125 v 5.49121 c 0,0.62402 -0.05811,1.08984 -0.17383,1.39844 -0.11572,0.30859 -0.3208,0.55566 -0.61524,0.74023 -0.29492,0.1836 -0.64062,0.27637 -1.03711,0.27637 -0.63379,0 -1.18017,-0.20703 -1.64013,-0.62012 -0.45996,-0.41406 -0.68994,-1.19922 -0.68994,-2.35547 v -4.93066 z" /><path
       id="path108"
       style="fill:#231f20;fill-opacity:1;fill-rule:nonzero;stroke:none"
       d="m 104.13135,388.63965 v 1.14746 c -0.56397,-0.89063 -1.39258,-1.33496 -2.48633,-1.33496 -0.70898,0 -1.36084,0.19824 -1.95508,0.59277 -0.59473,0.39649 -1.05517,0.94824 -1.38135,1.65723 -0.32666,0.70898 -0.48974,1.52441 -0.48974,2.44433 0,0.89844 0.14795,1.7129 0.44385,2.44532 0.29589,0.73047 0.74023,1.29199 1.33251,1.68164 0.59229,0.38965 1.2544,0.58496 1.98682,0.58496 0.53613,0 1.01416,-0.11621 1.43311,-0.34863 0.41894,-0.23243 0.75976,-0.53418 1.02246,-0.90625 v 4.50488 h 1.5 v -12.46875 h -1.40625 m -4.78125,4.49512 c 0,-1.15039 0.24121,-2.00977 0.72363,-2.57813 0.48242,-0.57031 1.05176,-0.85449 1.70801,-0.85449 0.66162,0 1.22363,0.27246 1.68652,0.81543 0.46289,0.54492 0.69434,1.375 0.69434,2.49121 0,1.22851 -0.23584,2.12988 -0.70703,2.70605 -0.47119,0.57422 -1.05176,0.86231 -1.74121,0.86231 -0.67334,0 -1.23584,-0.27637 -1.68702,-0.8291 -0.45166,-0.55274 -0.67724,-1.42383 -0.67724,-2.61328 z" /><path
       id="path110"
       style="fill:#231f20;fill-opacity:1;fill-rule:nonzero;stroke:none"
       d="m 113.67627,388.63965 v 1.33691 c -0.69043,-1.01562 -1.62793,-1.52441 -2.81348,-1.52441 -0.52343,0 -1.01172,0.10254 -1.46533,0.30566 -0.45361,0.20313 -0.79004,0.45899 -1.00976,0.76758 -0.21973,0.30859 -0.37452,0.68652 -0.46338,1.13379 -0.0615,0.2998 -0.0918,0.77441 -0.0918,1.42676 v 5.58496 h 1.5 v -5.00195 c 0,-0.79786 0.0303,-1.33594 0.0918,-1.61329 0.0947,-0.40234 0.29492,-0.71777 0.60156,-0.94726 0.30664,-0.22949 0.68555,-0.34375 1.13721,-0.34375 0.45117,0 0.87451,0.11719 1.27002,0.35254 0.3955,0.23437 0.67578,0.55469 0.84033,0.95898 0.16406,0.40528 0.24658,0.99219 0.24658,1.7627 v 4.83203 h 1.5 v -9.03125 z" /><path
       id="path112"
       style="fill:#231f20;fill-opacity:1;fill-rule:nonzero;stroke:none"
       d="m 116.78418,391.3584 1.46875,0.21875 c 0.083,-0.60547 0.31396,-1.06934 0.69385,-1.3916 0.37939,-0.32227 0.90967,-0.4834 1.59131,-0.4834 0.68652,0 1.19629,0.14258 1.5288,0.42871 0.33204,0.28613 0.49854,0.62109 0.49854,1.00586 0,0.3457 -0.15088,0.61719 -0.45215,0.81641 -0.21094,0.13476 -0.7207,0.30761 -1.5293,0.51757 -1.08935,0.28223 -1.84472,0.52637 -2.26562,0.73243 -0.42139,0.20605 -0.74072,0.49218 -0.95801,0.85546 -0.21777,0.36524 -0.32617,0.76758 -0.32617,1.20704 0,0.40136 0.0894,0.77246 0.26855,1.11425 0.1792,0.3418 0.42334,0.62598 0.73243,0.85157 0.23144,0.1748 0.54736,0.32324 0.94726,0.44433 0.3999,0.1211 0.8291,0.18262 1.28711,0.18262 0.68945,0 1.29443,-0.10254 1.81592,-0.30567 0.52148,-0.20507 0.90625,-0.48046 1.1543,-0.82812 0.24804,-0.34863 0.41943,-0.81445 0.51318,-1.39746 l -1.46875,-0.21875 c -0.0664,0.47168 -0.25732,0.83887 -0.57373,1.10351 -0.31641,0.26465 -0.76318,0.39649 -1.34082,0.39649 -0.68262,0 -1.16943,-0.11621 -1.46094,-0.34863 -0.2915,-0.23243 -0.43701,-0.50391 -0.43701,-0.81543 0,-0.19825 0.0605,-0.37598 0.18164,-0.53516 0.12109,-0.16406 0.31055,-0.2998 0.56934,-0.40723 0.14843,-0.0566 0.58545,-0.1875 1.31201,-0.39062 1.05078,-0.28906 1.78662,-0.52442 2.20849,-0.70801 0.42188,-0.18359 0.75293,-0.45019 0.99317,-0.7998 0.24023,-0.35157 0.36035,-0.78516 0.36035,-1.30469 0,-0.50879 -0.14551,-0.98731 -0.43555,-1.43653 -0.29004,-0.44921 -0.70898,-0.79589 -1.25586,-1.04199 -0.54736,-0.24511 -1.1665,-0.36816 -1.85693,-0.36816 -1.14453,0 -2.0166,0.24414 -2.61621,0.7334 -0.59961,0.48828 -0.98242,1.21289 -1.14795,2.17285 z" /><path
       id="path114"
       style="fill:#231f20;fill-opacity:1;fill-rule:nonzero;stroke:none"
       d="m 129.15283,390.00586 0.1875,-1.35156 c -0.42285,-0.0908 -0.80078,-0.13672 -1.13428,-0.13672 -0.54492,0 -0.96728,0.0879 -1.26757,0.26367 -0.3003,0.17578 -0.51172,0.40723 -0.63379,0.69336 -0.12207,0.28711 -0.18311,0.89062 -0.18311,1.81055 v 5.20117 h -1.09375 v 1.1875 h 1.09375 v 2.23535 l 1.5,0.91797 v -3.15332 h 1.53125 v -1.1875 h -1.53125 v -5.28125 c 0,-0.43653 0.0264,-0.7168 0.0801,-0.8418 0.0537,-0.125 0.14111,-0.22461 0.26221,-0.29785 0.12109,-0.0732 0.29492,-0.11035 0.52051,-0.11035 0.16894,0 0.39208,0.0166 0.66845,0.0508 z" /><path
       id="path116"
       style="fill:#231f20;fill-opacity:1;fill-rule:nonzero;stroke:none"
       d="m 130.57764,388.63965 v 9.03125 h 1.34375 v -1.39746 c 0.34228,0.64551 0.6582,1.07031 0.94824,1.27636 0.29004,0.20606 0.60889,0.3086 0.95703,0.3086 0.50195,0 1.0127,-0.16113 1.53223,-0.48242 l -0.52588,-1.39942 c -0.36084,0.19141 -0.72168,0.28809 -1.08203,0.28809 -0.32227,0 -0.61182,-0.10059 -0.86866,-0.30078 -0.25683,-0.2002 -0.4414,-0.47949 -0.55322,-0.83496 -0.16797,-0.542 -0.25146,-1.13477 -0.25146,-1.7793 v -4.70996 z" /><path
       id="path118"
       style="fill:#231f20;fill-opacity:1;fill-rule:nonzero;stroke:none"
       d="m 136.34912,399.3584 v 1.75 h 1.5 v -1.75 h -1.5 m 0,-10.71875 v 9.03125 h 1.5 v -9.03125 z" /><path
       id="path120"
       style="fill:#231f20;fill-opacity:1;fill-rule:nonzero;stroke:none"
       d="m 146.12061,391.57715 1.56005,-0.21875 c -0.24462,-0.9209 -0.69726,-1.63574 -1.35791,-2.14356 -0.66113,-0.50879 -1.50537,-0.76269 -2.53271,-0.76269 -1.29395,0 -2.32031,0.40527 -3.07813,1.21582 -0.7583,0.81055 -1.1372,1.94726 -1.1372,3.41113 0,1.51367 0.38281,2.68848 1.14941,3.52442 0.7666,0.83593 1.76074,1.25488 2.98291,1.25488 1.18262,0 2.14893,-0.40918 2.89893,-1.22949 0.75,-0.81836 1.125,-1.97168 1.125,-3.45703 0,-0.0918 -0.003,-0.22657 -0.008,-0.40723 h -6.6167 c 0.0557,-0.98926 0.33105,-1.74707 0.82617,-2.27344 0.49512,-0.52637 1.1123,-0.78906 1.85205,-0.78906 0.55078,0 1.02051,0.14941 1.41016,0.44726 0.38916,0.29786 0.69775,0.77442 0.92627,1.42774 m -4.9209,2.4375 h 4.9375 c -0.0669,0.75976 -0.25586,1.3291 -0.56641,1.70996 -0.47754,0.58887 -1.09619,0.88379 -1.85644,0.88379 -0.68848,0 -1.26758,-0.23535 -1.73633,-0.70606 -0.46924,-0.4707 -0.72852,-1.09961 -0.77832,-1.88769 z" /><path
       id="path122"
       style="fill:#231f20;fill-opacity:1;fill-rule:nonzero;stroke:none"
       d="m 155.60303,391.57715 1.56006,-0.21875 c -0.24463,-0.9209 -0.69727,-1.63574 -1.35791,-2.14356 -0.66114,-0.50879 -1.50538,-0.76269 -2.53272,-0.76269 -1.29394,0 -2.32031,0.40527 -3.07812,1.21582 -0.7583,0.81055 -1.13721,1.94726 -1.13721,3.41113 0,1.51367 0.38281,2.68848 1.14941,3.52442 0.7666,0.83593 1.76075,1.25488 2.98291,1.25488 1.18262,0 2.14893,-0.40918 2.89893,-1.22949 0.75,-0.81836 1.125,-1.97168 1.125,-3.45703 0,-0.0918 -0.003,-0.22657 -0.008,-0.40723 h -6.6167 c 0.0557,-0.98926 0.33105,-1.74707 0.82617,-2.27344 0.49512,-0.52637 1.11231,-0.78906 1.85205,-0.78906 0.55078,0 1.02051,0.14941 1.41016,0.44726 0.38916,0.29786 0.69775,0.77442 0.92627,1.42774 m -4.9209,2.4375 h 4.9375 c -0.0669,0.75976 -0.25586,1.3291 -0.56641,1.70996 -0.47754,0.58887 -1.09619,0.88379 -1.85644,0.88379 -0.68848,0 -1.26758,-0.23535 -1.73633,-0.70606 -0.46924,-0.4707 -0.72852,-1.09961 -0.77832,-1.88769 z" /><path
       id="path124"
       style="fill:#231f20;fill-opacity:1;fill-rule:nonzero;stroke:none"
       d="m 159.00879,388.63965 v 12.46875 h 1.5 v -12.46875 z" /><path
       id="path126"
       style="fill:#231f20;fill-opacity:1;fill-rule:nonzero;stroke:none"
       d="m 168.87402,391.57715 1.56006,-0.21875 c -0.24463,-0.9209 -0.69726,-1.63574 -1.35791,-2.14356 -0.66113,-0.50879 -1.50537,-0.76269 -2.53271,-0.76269 -1.29395,0 -2.32032,0.40527 -3.07813,1.21582 -0.7583,0.81055 -1.1372,1.94726 -1.1372,3.41113 0,1.51367 0.38281,2.68848 1.14941,3.52442 0.7666,0.83593 1.76074,1.25488 2.98291,1.25488 1.18262,0 2.14893,-0.40918 2.89893,-1.22949 0.75,-0.81836 1.125,-1.97168 1.125,-3.45703 0,-0.0918 -0.003,-0.22657 -0.008,-0.40723 h -6.61669 c 0.0557,-0.98926 0.33105,-1.74707 0.82617,-2.27344 0.49511,-0.52637 1.1123,-0.78906 1.85205,-0.78906 0.55078,0 1.02051,0.14941 1.41015,0.44726 0.38916,0.29786 0.69776,0.77442 0.92627,1.42774 m -4.92089,2.4375 h 4.9375 c -0.0669,0.75976 -0.25586,1.3291 -0.56641,1.70996 -0.47754,0.58887 -1.09619,0.88379 -1.85645,0.88379 -0.68847,0 -1.26757,-0.23535 -1.73632,-0.70606 -0.46924,-0.4707 -0.72852,-1.09961 -0.77832,-1.88769 z" /><path
       id="path128"
       style="fill:#231f20;fill-opacity:1;fill-rule:nonzero;stroke:none"
       d="m 172.31055,388.63965 v 12.46875 h 1.5 v -7.09473 l 3.55078,3.65723 h 1.94092 l -3.38086,-3.35547 3.72461,-5.67578 h -1.80518 l -2.96728,4.63574 -1.06299,-1.05469 v -3.58105 z" /><path
       id="path130"
       style="fill:#231f20;fill-opacity:1;fill-rule:nonzero;stroke:none"
       d="m 184.1167,390.00586 0.1875,-1.35156 c -0.42285,-0.0908 -0.80078,-0.13672 -1.13428,-0.13672 -0.54492,0 -0.96728,0.0879 -1.26758,0.26367 -0.30029,0.17578 -0.51171,0.40723 -0.63379,0.69336 -0.12207,0.28711 -0.1831,0.89062 -0.1831,1.81055 v 5.20117 h -1.09375 v 1.1875 h 1.09375 v 2.23535 l 1.5,0.91797 v -3.15332 h 1.53125 v -1.1875 h -1.53125 v -5.28125 c 0,-0.43653 0.0264,-0.7168 0.0801,-0.8418 0.0537,-0.125 0.14111,-0.22461 0.2622,-0.29785 0.1211,-0.0732 0.29493,-0.11035 0.52051,-0.11035 0.16895,0 0.39209,0.0166 0.66846,0.0508 z" /><path
       id="path132"
       style="fill:#231f20;fill-opacity:1;fill-rule:nonzero;stroke:none"
       d="m 185.5415,388.63965 v 9.03125 h 1.34375 v -1.39746 c 0.34229,0.64551 0.65821,1.07031 0.94825,1.27636 0.29004,0.20606 0.60888,0.3086 0.95703,0.3086 0.50195,0 1.01269,-0.16113 1.53222,-0.48242 l -0.52587,-1.39942 c -0.36084,0.19141 -0.72168,0.28809 -1.08204,0.28809 -0.32226,0 -0.61181,-0.10059 -0.86865,-0.30078 -0.25683,-0.2002 -0.4414,-0.47949 -0.55322,-0.83496 -0.16797,-0.542 -0.25147,-1.13477 -0.25147,-1.7793 v -4.70996 z" /><path
       id="path134"
       style="fill:#231f20;fill-opacity:1;fill-rule:nonzero;stroke:none"
       d="m 190.68799,393.15527 c 0,1.667 0.45654,2.90137 1.37012,3.70313 0.76269,0.66699 1.69287,1 2.79052,1 1.21973,0 2.21631,-0.40527 2.99073,-1.21582 0.77392,-0.81055 1.16113,-1.93164 1.16113,-3.36035 0,-1.15821 -0.17139,-2.06934 -0.51367,-2.7334 -0.34278,-0.66406 -0.84131,-1.17871 -1.49561,-1.5459 -0.6543,-0.36719 -1.36865,-0.55078 -2.14258,-0.55078 -1.24218,0 -2.24658,0.40332 -3.0122,1.21191 -0.76563,0.80762 -1.14844,1.97168 -1.14844,3.49121 m 1.53125,-0.0107 c 0,-1.15039 0.24902,-2.01172 0.74756,-2.58398 0.49804,-0.57227 1.12549,-0.8584 1.88183,-0.8584 0.75,0 1.37451,0.28711 1.87305,0.8623 0.49805,0.5752 0.74756,1.45118 0.74756,2.63086 0,1.10938 -0.25098,1.95117 -0.75195,2.52344 -0.50098,0.57227 -1.12403,0.8584 -1.86866,0.8584 -0.75634,0 -1.38379,-0.28418 -1.88183,-0.85449 -0.49854,-0.56836 -0.74756,-1.42871 -0.74756,-2.57813 z" /><path
       id="path136"
       style="fill:#231f20;fill-opacity:1;fill-rule:nonzero;stroke:none"
       d="m 200.7334,388.63965 v 9.03125 h 1.34375 v -1.2832 c 0.65039,0.98046 1.58935,1.4707 2.81787,1.4707 0.5332,0 1.02393,-0.0977 1.47119,-0.29297 0.44727,-0.19531 0.78174,-0.45215 1.0044,-0.76855 0.22216,-0.31641 0.37793,-0.69336 0.46679,-1.12891 0.0557,-0.2832 0.0835,-0.77832 0.0835,-1.48535 v -5.54297 h -1.53125 v 5.49121 c 0,0.62402 -0.0581,1.08984 -0.17383,1.39844 -0.11572,0.30859 -0.3208,0.55566 -0.61523,0.74023 -0.29493,0.1836 -0.64063,0.27637 -1.03711,0.27637 -0.63379,0 -1.18018,-0.20703 -1.64014,-0.62012 -0.45996,-0.41406 -0.68994,-1.19922 -0.68994,-2.35547 v -4.93066 z" /><path
       id="path138"
       style="fill:#231f20;fill-opacity:1;fill-rule:nonzero;stroke:none"
       d="m 210.27832,399.3584 v 1.75 h 1.5 v -1.75 h -1.5 m 0,-10.71875 v 9.03125 h 1.5 v -9.03125 z" /><path
       id="path140"
       style="fill:#231f20;fill-opacity:1;fill-rule:nonzero;stroke:none"
       d="m 214.00391,388.63965 v 12.46875 h 1.5 v -7.09473 l 3.55078,3.65723 h 1.94092 l -3.38086,-3.35547 3.72461,-5.67578 h -1.80518 l -2.96729,4.63574 -1.06298,-1.05469 v -3.58105 z" /><path
       id="path142"
       style="fill:#8eb4dd;fill-opacity:1;fill-rule:nonzero;stroke:none"
       d="m 147.646,440.23877 c 0,0 0.39697,-1.18506 0.39697,-3.43555 0,-2.15381 -0.39697,-3.54687 -0.39697,-3.54687 h 20.74755 v 6.98242 z" /><path
       id="path144"
       style="fill:#8eb4dd;fill-opacity:1;fill-rule:nonzero;stroke:none"
       d="M 107.48779,440.23877 H 84.4126 v -6.98242 h 23.07519 c 0,0 -0.37402,1.3208 -0.37402,3.64209 0,2.32129 0.37402,3.34033 0.37402,3.34033 z" /><path
       id="path146"
       style="fill:none;stroke:#0f70b5;stroke-width:2.59998989;stroke-linecap:butt;stroke-linejoin:miter;stroke-miterlimit:4;stroke-dasharray:none;stroke-opacity:1"
       d="m 104.12988,467.26953 c -7.29883,-7.78467 -11.69873,-17.8418 -11.69873,-28.82715 0,-11.02343 4.43164,-21.11621 11.77832,-28.91308" /><path
       id="path148"
       style="fill:#0f70b5;fill-opacity:1;fill-rule:nonzero;stroke:none"
       d="m 523.54297,468.92627 c 1.49414,0 2.95508,-0.35254 4.37988,-1.05859 1.42383,-0.70606 2.53418,-1.71582 3.3291,-3.03028 0.79395,-1.31347 1.19141,-2.68359 1.19141,-4.10937 0,-1.41211 -0.3916,-2.76953 -1.17383,-4.07129 -0.7832,-1.30371 -1.88183,-2.31543 -3.29394,-3.03613 -1.41211,-0.71973 -2.89063,-1.08008 -4.43262,-1.08008 -1.54102,0 -3.01953,0.36035 -4.43164,1.08008 -1.41309,0.7207 -2.51367,1.73242 -3.29981,3.03613 -0.78711,1.30176 -1.17968,2.65918 -1.17968,4.07129 0,1.42578 0.39843,2.7959 1.19726,4.10937 0.79785,1.31446 1.91113,2.32422 3.33594,3.03028 1.42285,0.70605 2.88379,1.05859 4.37793,1.05859 m 0,-1.35449 c -1.25293,0 -2.47266,-0.29492 -3.66016,-0.88574 -1.18652,-0.58985 -2.11621,-1.4336 -2.78515,-2.53028 -0.6709,-1.09765 -1.00489,-2.24023 -1.00489,-3.42773 0,-1.17969 0.32715,-2.3125 0.98828,-3.39453 0.65625,-1.08204 1.57813,-1.92579 2.76075,-2.53125 1.18261,-0.60547 2.41601,-0.90625 3.70117,-0.90625 1.28516,0 2.52051,0.30078 3.70117,0.90625 1.18359,0.60546 2.10254,1.44921 2.75586,2.53125 0.6543,1.08203 0.98242,2.21484 0.98242,3.39453 0,1.1875 -0.33398,2.33008 -0.99902,3.42773 -0.66699,1.09668 -1.59473,1.94043 -2.78711,2.53028 -1.18848,0.59082 -2.40723,0.88574 -3.65332,0.88574 m -3.91699,-11.36035 v 8.78222 h 3.29785 c 1.12695,0 1.94238,-0.0811 2.44726,-0.24316 0.50391,-0.16211 0.9043,-0.44434 1.20411,-0.84668 0.29882,-0.4043 0.45019,-0.83399 0.45019,-1.28711 0,-0.64063 -0.25,-1.19824 -0.74414,-1.67383 -0.49512,-0.47461 -1.15234,-0.74219 -1.96973,-0.79883 0.33399,-0.13086 0.60352,-0.28515 0.80567,-0.46582 0.38281,-0.34668 0.85156,-0.92871 1.40722,-1.74511 l 1.16016,-1.72168 h -1.88965 l -0.85351,1.38574 c -0.67481,1.07812 -1.20215,1.75781 -1.58496,2.04004 -0.28125,0.208 -0.68848,0.30273 -1.22852,0.28808 h -0.89844 v -3.71386 h -1.60351 m 1.60351,4.9375 h 1.87207 c 0.89551,0 1.50684,0.12207 1.83203,0.37011 0.3252,0.2461 0.48829,0.57227 0.48829,0.97852 0,0.26074 -0.0781,0.49609 -0.23536,0.70215 -0.15722,0.20605 -0.375,0.36035 -0.65332,0.46191 -0.27929,0.10156 -0.79492,0.15234 -1.54882,0.15234 h -1.75489 z" /></g></svg>